# xmcd
#
# Track frame offsets:
#	150
#	19317
#	44415
#	63655
#	81615
#	100577
#	120832
#	141750
#	159295
#	176100
#	192127
#	210230
#	233912
#	251700
#	268665
#
# Disc length: 3846 seconds
#
# Revision: 1
# Processed by: cddbd v1.5.2PL0 Copyright (c) Steve Scherf et al.
# Submitted via: EasyCDDAExtractor 15.3.0.1
#
DISCID=cd0f040f
DTITLE=Millie - 30 Exitos Insuperables - CD 1
DYEAR=2003
DGENRE=Latin
TTITLE0=De Hoy En Adelante
TTITLE1=Sola
TTITLE2=Emociones
TTITLE3=Una Voz En El Alma
TTITLE4=Solo Tu (Only Love)
TTITLE5=Mi Historia Tu Seras (You Are The Story Of My Life)
TTITLE6=Como Vivir Sin Verte
TTITLE7=Por Primera Vez
TTITLE8=Asi Soy Yo
TTITLE9=Para Que Me Olvide De Ti
TTITLE10=Entre Cuatro Paredes
TTITLE11=El Juego Del Amor
TTITLE12=Amar Es Un Juego
TTITLE13=Donde Te Has Ido Amor (Where Did The Feeling Go)
TTITLE14=Me Equivoque
EXTD=
EXTT0=
EXTT1=
EXTT2=
EXTT3=
EXTT4=
EXTT5=
EXTT6=
EXTT7=
EXTT8=
EXTT9=
EXTT10=
EXTT11=
EXTT12=
EXTT13=
EXTT14=
PLAYORDER=
